<?xml version="1.0" encoding="utf-8"?>
<!-- Generator: Adobe Illustrator 21.1.0, SVG Export Plug-In . SVG Version: 6.00 Build 0)  -->
<svg version="1.1" id="Layer_1" xmlns="http://www.w3.org/2000/svg" xmlns:xlink="http://www.w3.org/1999/xlink" x="0px" y="0px"
	 viewBox="0 0 1300 300" style="enable-background:new 0 0 1300 300;" xml:space="preserve">
<style type="text/css">
	.st0{fill:#74D600;}
	.st1{fill:#FFFFFF;}
</style>
<g>
	<path class="st0" d="M286.8,163.5c-3.6-6-56.6-16.9-56.8-69.8c-17.7,15-28.9,37.4-28.9,62.5c0,29.8,15.9,55.9,39.7,70.2
		C245.4,221.1,290.3,169.2,286.8,163.5z"/>
	<path class="st0" d="M283.2,74.1c-20.2,0-38.7,7.3-53,19.5c2,2.6,29.6,38.5,70.7,34c0,0,12.5-5.2,23.4,1.7c0,0,40.5,29.2-83.3,97.3
		c12.3,7.4,26.7,11.7,42.2,11.7c45.3,0,82-36.7,82-82S328.5,74.1,283.2,74.1z M318.1,121.9c-10.1,0-18.2-8.2-18.2-18.2
		s8.2-18.2,18.2-18.2s18.2,8.2,18.2,18.2S328.2,121.9,318.1,121.9z"/>
</g>
<g>
	<path class="st1" d="M155.4,123c-4.9-4.5-10.6-8-17.1-10.6c-6.4-2.5-13-3.8-19.7-3.8c-6.8,0-13,1.2-18.7,3.5
		c-5.9,2.4-10.9,5.6-14.9,9.7c-4.1,4.2-7.3,9.2-9.7,14.9c-2.3,5.6-3.5,11.8-3.5,18.6c0,9.6,2.2,17.9,6.7,25
		c4.4,7.1,10.4,12.5,18,16.2c7.6,3.8,16,5.7,25.2,5.7c3.7,0,7.8-0.4,12.4-1.3c4.5-0.9,7.8-2.4,9.9-4.6v-22.9h-15.5l-13.9-33.4h68.4
		v81.8c-3,1.9-7.5,3.9-13.5,6.2c-5.6,2.2-11.1,3.9-16.5,5.2c-5.1,1.3-11,2.5-17.8,3.5c-6.5,0.9-12.6,1.3-18.4,1.3
		c-15,0-29-3.7-41.8-11c-12.9-7.4-23.1-17.5-30.6-30.1c-7.5-12.6-11.3-26.5-11.3-41.6c0-15,3.8-28.9,11.3-41.7
		c7.4-12.6,17.6-22.6,30.6-30.1c12.9-7.4,26.8-11,41.8-11c7.4,0,14.9,0.9,22.5,2.6c7.5,1.7,14.6,4.3,21.3,7.7
		c6.8,3.5,12.8,7.5,17.8,11.9L155.4,123z"/>
	<path class="st1" d="M389.2,233.7V75.4h47.3c10.6,0,19.6,0.8,27,2.5c7.6,1.6,14.1,4.4,19.6,8.3c5.5,3.9,9.7,9.1,12.7,15.7
		c3,6.6,4.5,14.7,4.5,24.2c0,7.8-1.5,14.8-4.5,21c-3,6.2-7.1,11.5-12.4,15.8c-5.4,4.5-11.6,7.8-18.9,10.2c-7.4,2.4-15,3.6-22.9,3.6
		h-13.6v57.1L389.2,233.7L389.2,233.7z M428.2,109v34h11.2c7.1,0,12.6-1.5,16.5-4.5c3.8-2.9,5.7-7.1,5.7-12.7
		c0-5.4-1.9-9.6-5.7-12.5c-3.9-2.9-9.4-4.4-16.5-4.4L428.2,109L428.2,109z"/>
	<path class="st1" d="M505.9,233.7V75.5l38.8-0.1v122.2h44.7l47.9-86.9l20.1-36.4l20,36.4l67.6,123h-40l-16-29.2h-63.3l-16.1,29.2
		H505.9z M672.9,175.2l-15.5-28.1l-15.6,28.1H672.9z"/>
	<path class="st1" d="M800.2,160.4v73.3h-41.1v-73l-49.8-85.3h45.4l24.5,46.7l24.4-46.7h45.1L800.2,160.4z"/>
</g>
<g>
	<path class="st0" d="M896.9,177.8c0.2,5.9,2.6,12,6.4,15.8c3.5,3.8,9.2,6.1,16.1,6.1c8,0,13-3.5,16.1-6.8c3.5-4,4.7-8.3,4.7-13
		c0-6.8-3.3-11.6-6.1-13.9c-4-3.3-10.2-4.5-15.1-4.5c-2.6,0-4.7,0.2-6.8,0.9v-27.6c8.3,1.2,13.5-1.2,16.8-4
		c3.8-3.3,5.2-7.6,5.2-11.1c0-4.3-1.9-9-4.3-11.3c-2.6-2.6-7.1-4.3-11.6-4.3c-5,0-9,1.7-11.3,4c-3.5,3.3-5.4,9-5.4,13.9h-38
		c0.9-16.5,8.3-29,15.3-36.1c11.6-12,26.4-15.3,41.6-15.3c11.8,0,27.4,2.4,39.2,13.9c7.8,7.8,12.8,18.4,12.8,30.5
		c0,6.8-1.2,13-4.7,19.4c-2.8,5.2-6.4,9.2-12,12c9.7,3.5,15.3,9.7,18.7,14.4c4.5,6.6,6.6,14.2,6.6,23.1c0,16.8-7.3,27.9-13.9,34.5
		c-8.5,8.5-23.6,16.8-47,16.8c-15.1,0-31.4-3.5-45.1-16.3c-8-7.3-17.7-20.8-19.6-41.1H896.9z"/>
	<path class="st0" d="M1099.7,74.1l-44.9,53.6c6.4-2.8,14.2-5,22-5c11.8,0,25.3,4.7,35.7,15.1c11.1,11.1,14.9,24.1,14.9,37.5
		c0,14.6-4,28.8-16.3,41.1c-15.6,15.6-35.2,18.7-50.3,18.7c-27.2,0-43-10.2-51.7-19.1c-7.6-7.8-14.4-19.8-14.4-36.8
		c0-21.5,10.9-42.3,23.4-58.8l35.2-46.3H1099.7z M1078.2,195.5c4.5-4.5,7.3-10.9,7.3-17.9c0-5-1.7-11.1-7.3-16.5
		c-6.4-6.1-13.5-7.3-18.2-7.3c-6.1,0-13,2.6-17.7,6.8c-5,4.5-7.8,10.9-7.8,16.3c0,6.6,2.4,13.2,6.8,17.9c6.1,6.4,13.5,8,18.7,8
		C1068.8,202.8,1074.7,199,1078.2,195.5z"/>
	<path class="st0" d="M1248.7,108.8h-54.5l-2.8,17.5c5.9-0.9,10.6-1.2,12.8-1.2c21,0,34.2,8,41.6,15.6c7.1,7.1,14.4,19.1,14.4,37.3
		c0,18.9-7.6,31.6-15.1,39.4c-14.6,15.1-34,17.7-49.1,17.7c-23.8,0-40.4-6.1-53.1-14.2l6.1-38.3c8.3,7.6,16.3,11.6,18.9,12.8
		c7.1,3.3,15.8,5.4,23.6,5.4c8.3,0,15.8-2.8,20.5-7.8c3.5-3.8,6.1-9.4,6.1-16.1c0-8.3-4-13.9-7.6-17c-8.5-7.6-23.1-7.8-28.3-7.8
		c-11.1,0-20.5,2.4-29,6.6l13.7-84.8h81.9V108.8z"/>
</g>
</svg>
