<?xml version="1.0" encoding="utf-8"?>
<!-- Generator: Adobe Illustrator 19.0.0, SVG Export Plug-In . SVG Version: 6.00 Build 0)  -->
<svg version="1.1" id="Layer_1" xmlns="http://www.w3.org/2000/svg" xmlns:xlink="http://www.w3.org/1999/xlink" x="0px" y="0px"
	 viewBox="0 0 71 42" style="enable-background:new 0 0 71 42;" xml:space="preserve">
<style type="text/css">
	.st0{fill:#6F8496;}
	.st1{fill:#A6CE39;}
	.st2{fill:#D1D3D4;}
	#Layer_1{width:71px;height:42px;}
</style>
<rect x="-342.9" y="-35.8" class="st0" width="119.7" height="113.7"/>
<g>
	<g>
		<g>
			<rect x="-191.1" y="34.7" class="st0" width="9" height="1.8"/>
			<rect x="-191.1" y="37.4" class="st0" width="9" height="1.8"/>
			<rect x="-191.1" y="40.1" class="st0" width="9" height="1.8"/>
			<path class="st0" d="M-190.2,42.8v2c0,0.7,0.8,0.7,1.6,0.7h4c0.8,0,1.6,0,1.6-0.7v-2L-190.2,42.8z"/>
			<path class="st0" d="M-181.8,33.8h-9.8l0-0.7c0-1.3-0.2-2.6-0.8-3.5c-0.9-1.5-2.2-2.6-3-3.4c-1.4-1.5-3-2.7-3-4.2
				c0-1.2,0-2.4,0-3.4c0.1-7.3,11.2-7.5,11.3-7.5l0.8,0c0.1,0,11.3,0.2,11.3,7.6c0,1,0.1,2.3,0,3.4c0,1.5-1.6,2.6-3.1,4.1
				c-0.8,0.8-2.1,1.8-3,3.4c-0.5,0.8-0.7,2.1-0.7,3.4L-181.8,33.8z M-190.1,32.4l6.8,0c0.1-1.1,0.6-3.1,1.5-4.1
				c1.2-1.4,2.2-2.6,3-3.4c1.4-1.4,2.2-1.7,2.3-2.7c0-0.9,0-2.5,0-3.4c0-6-9.7-6.2-9.8-6.2l-0.8,0c-0.3,0-9.4,0.2-9.8,6.2
				c-0.1,0.9,0,2.6,0,3.4c0,1.1,0.9,1.3,2.3,2.7c0.8,0.8,1.7,2.1,3,3.5C-190.7,29.3-190.1,31.3-190.1,32.4"/>
			<path class="st0" d="M-188.6,33.2V22.1c0-0.4,0.3-0.7,0.8-0.7c0.4,0,0.8,0.3,0.8,0.7v11.1C-187.1,33.6-188.6,33.6-188.6,33.2"/>
			<path class="st0" d="M-186.3,33.2V22.1c0-0.4,0.3-0.7,0.8-0.7s0.8,0.3,0.8,0.7v11.1C-184.8,33.6-186.3,33.6-186.3,33.2"/>
			<path class="st0" d="M-189.3,21.9c-0.1,0-0.1,0-0.2-0.1c-0.1-0.1-0.2-0.3-0.1-0.4l1.7-2l1,1.2l1.1-1.2l2,2c0.1,0.1,0.1,0.3,0,0.4
				c-0.1,0.1-0.4,0.1-0.5,0l-1.5-1.5l-1.1,1.2l-1-1.2l-1.2,1.4C-189.2,21.8-189.2,21.9-189.3,21.9"/>
		</g>
	</g>
	<rect x="-179" y="34.7" class="st1" width="1.8" height="14.5"/>
	<path class="st1" d="M-166.8,41c-0.3-0.8-0.6-1.3-1.1-1.7c-0.5-0.4-0.9-0.6-1.4-0.8c-0.5-0.2-1-0.2-1.6-0.2c-0.6,0-1.1,0-1.6,0.2
		c-0.5,0.2-0.9,0.4-1.4,0.8c-0.5,0.4-0.8,0.9-1.1,1.7c-0.3,0.8-0.5,1.7-0.5,2.8c0,1.1,0.2,1.9,0.5,2.7c0.3,0.8,0.6,1.3,1.1,1.7
		c0.5,0.4,0.9,0.6,1.4,0.8c0.5,0.2,1,0.2,1.6,0.2c0.6,0,1.1-0.1,1.6-0.2c0.5-0.2,0.9-0.4,1.4-0.8c0.5-0.4,0.8-0.9,1.1-1.7
		c0.3-0.8,0.4-1.7,0.4-2.7C-166.4,42.6-166.5,41.7-166.8,41 M-168.4,45.5c-0.2,0.5-0.4,0.9-0.7,1.1c-0.3,0.2-0.6,0.4-0.8,0.5
		c-0.3,0.1-0.6,0.2-1,0.2c-0.3,0-0.7-0.1-0.9-0.2c-0.3-0.1-0.6-0.3-0.8-0.5c-0.3-0.3-0.5-0.6-0.7-1.1c-0.2-0.5-0.3-1.1-0.3-1.8
		c0-0.7,0.1-1.4,0.3-1.9c0.2-0.5,0.4-0.9,0.7-1.1c0.3-0.2,0.6-0.4,0.8-0.5c0.3-0.1,0.6-0.1,0.9-0.1c0.3,0,0.7,0,1,0.1
		c0.3,0.1,0.6,0.3,0.8,0.5c0.3,0.3,0.5,0.6,0.7,1.1c0.2,0.5,0.2,1.1,0.2,1.8C-168.2,44.4-168.3,45-168.4,45.5"/>
	<path class="st1" d="M-155.6,38.3l0,1.2l-1.3,0c0.6,0.6,0.8,1.3,0.8,2.2c0,2.4-2.2,3.3-4.6,3.3c-1.4-0.1-1.9-0.3-2.2-0.5
		c-0.4,1.2-0.6,1.4,0.6,1.6c1,0.2,2.4,0.4,3,0.6c2.5,0.7,3.6,0.9,3.6,2.8c0,2.4-2.4,3.3-4.7,3.3c-1.8,0-4-0.8-4.2-2.8
		c-0.1-1.2,0-2.2,1.1-2.8c-0.7-1.2-0.7-2.1-0.2-3.2c-0.8-0.6-0.9-1.5-0.9-2.5c0-2.2,1.8-3.2,4.1-3.2c0.9,0,1.6,0,2.3,0L-155.6,38.3z
		 M-162.6,48c-0.6,0.5-0.6,1.2-0.4,2c0.4,1.3,1.3,1.4,2.6,1.4c1.8,0,3.7-0.6,2.9-2.5c-0.4-0.8-2.6-1.2-3.6-1.3
		C-161.4,47.7-162.3,47.8-162.6,48 M-157.9,41.4c0-1.4-0.7-1.9-2.5-1.9c-1.8,0-2.7,0.5-2.7,2c0,1.5,0.9,2.2,2.7,2.2
		C-158.6,43.7-157.9,43-157.9,41.4"/>
	<path class="st1" d="M-153.8,34.7h1.8v1.8h-1.8V34.7z M-153.8,49.2h1.8V38.3h-1.8V49.2z"/>
	<path class="st1" d="M-150.1,43.7c0-1.1,0.1-2,0.4-2.8c0.3-0.8,0.6-1.3,1.1-1.7c0.5-0.4,0.9-0.6,1.4-0.8c0.5-0.2,1-0.2,1.6-0.2
		c0.9,0,1.9,0.2,2.8,0.6l0,1.9c-0.9-0.4-1.8-0.8-2.7-0.7c-0.9,0-1.7,0.3-2.1,0.8c-0.4,0.5-0.6,1.6-0.6,3c0,1.4,0.3,2.3,0.7,2.9
		c0.4,0.5,0.9,0.7,2,0.7c0.9,0,1.7-0.3,2.7-0.6l0,1.8c-0.9,0.4-1.8,0.6-2.8,0.6c-0.4,0-0.9,0-1.2-0.1c-0.4-0.1-0.8-0.2-1.2-0.5
		c-0.4-0.2-0.7-0.6-1-1c-0.3-0.4-0.5-0.9-0.7-1.6C-150,45.3-150.1,44.6-150.1,43.7"/>
	<path class="st0" d="M-141.1,45.7c0-0.5,0.1-0.9,0.3-1.3c0.2-0.4,0.4-0.7,0.7-0.9c0.3-0.2,0.6-0.4,1-0.6c0.4-0.2,0.8-0.3,1.1-0.4
		c0.3-0.1,0.7-0.1,1.1-0.2c0.4,0,0.7-0.1,0.9-0.1c0.2,0,0.4,0,0.6,0l1.7,0.1c0-0.9-0.3-1.5-0.9-1.8c-0.5-0.4-1.4-0.5-2.4-0.5
		c-1.2,0-2.1,0.3-3.1,0.6l0-1.7c1.1-0.4,2.2-0.6,3.3-0.6c1.5,0,2.7,0.4,3.5,1.1c0.8,0.7,1.2,1.8,1.2,3.3v3.2c0,0.7-0.2,1.2-0.5,1.7
		c-0.3,0.5-0.7,0.8-1.2,1c-0.5,0.2-1,0.4-1.4,0.4c-0.4,0.1-0.9,0.1-1.3,0.1c-0.3,0-0.7,0-1-0.1c-0.4,0-0.8-0.1-1.2-0.3
		c-0.4-0.2-0.8-0.3-1.2-0.6c-0.3-0.2-0.6-0.6-0.8-1C-141,46.8-141.1,46.3-141.1,45.7 M-139.4,45.7c0,1.3,0.7,1.8,2.7,1.8
		c1.9,0,2.8-0.5,2.8-1.7v-2c-0.5-0.1-1,0-1.8,0C-138.3,43.7-139.4,44.3-139.4,45.7"/>
	<rect x="-130.3" y="34.7" class="st0" width="1.8" height="14.5"/>
</g>
<g>
	<rect x="-198.3" y="-35.8" class="st1" width="23.9" height="36.9"/>
	<rect x="-195.2" y="-16" class="st0" width="1.5" height="1.6"/>
	<rect x="-195.2" y="-12.8" class="st0" width="1.5" height="7.7"/>
	<path class="st0" d="M-188.8-16h-1.6v3.1h-1.4v1.6h1.4v3.8c0,0.5,0.1,1,0.3,1.3c0.2,0.4,0.4,0.6,0.7,0.8c0.3,0.1,0.5,0.3,0.8,0.3
		C-188.5-5-188.3-5-188-5h0c0.4,0,0.7-0.1,1.1-0.2l0.2-0.1v-1.6l-0.3,0.1c-0.3,0.1-0.5,0.2-0.8,0.2c-0.5,0-0.7-0.1-0.7-0.2
		c-0.1-0.1-0.2-0.4-0.2-0.7v-3.9h2.1v-1.6h-2.1V-16z"/>
	<polygon class="st0" points="-185.9,-12.5 -184.3,-12.5 -182.8,-15.9 -184.5,-15.9 	"/>
	<path class="st0" d="M-178-8.6c-0.3-0.4-0.6-0.6-1.1-0.8c-0.4-0.1-0.8-0.3-1.2-0.4c-0.4-0.1-0.7-0.2-0.9-0.4
		c-0.3-0.2-0.3-0.3-0.3-0.4c0-0.4,0.1-0.9,1.4-0.9c0.6,0,1.1,0.2,1.6,0.5l0.3,0.2v-1.6l-0.1-0.1c-0.6-0.3-1.3-0.5-1.9-0.5
		c-0.9,0-1.6,0.2-2.1,0.7c-0.5,0.4-0.7,1-0.7,1.6c0,0.5,0.2,0.9,0.5,1.3c0.3,0.3,0.6,0.5,1.1,0.7c0.4,0.1,0.8,0.2,1.2,0.3
		c0.4,0.1,0.7,0.2,0.9,0.4c0.2,0.2,0.3,0.4,0.3,0.7c0,0.2,0,0.8-1.4,0.8c-0.7,0-1.4-0.2-2-0.6l-0.3-0.2v1.6l0.1,0.1
		c0.7,0.4,1.4,0.6,2.3,0.6c0.9,0,1.6-0.2,2.1-0.6c0.5-0.4,0.8-0.9,0.8-1.6C-177.5-7.8-177.7-8.3-178-8.6"/>
</g>
<g>
	<g>
		<g>
			<g>
				<rect x="-317.6" y="34.7" class="st2" width="9" height="1.8"/>
				<rect x="-317.6" y="37.4" class="st2" width="9" height="1.8"/>
				<rect x="-317.6" y="40.1" class="st2" width="9" height="1.8"/>
				<path class="st2" d="M-316.7,42.8v2c0,0.7,0.8,0.7,1.6,0.7h4c0.8,0,1.6,0,1.6-0.7v-2L-316.7,42.8z"/>
				<path class="st2" d="M-308.3,33.8h-9.8l0-0.7c0-1.3-0.2-2.6-0.8-3.5c-0.9-1.5-2.2-2.6-3-3.4c-1.4-1.5-3-2.7-3-4.2
					c0-1.2,0-2.4,0-3.4c0.1-7.3,11.2-7.5,11.3-7.5l0.8,0c0.1,0,11.3,0.2,11.3,7.6c0,1,0.1,2.3,0,3.4c0,1.5-1.6,2.6-3.1,4.1
					c-0.8,0.8-2.1,1.8-3,3.4c-0.5,0.8-0.7,2.1-0.7,3.4L-308.3,33.8z M-316.5,32.4l6.8,0c0.1-1.1,0.6-3.1,1.5-4.1
					c1.2-1.4,2.2-2.6,3-3.4c1.4-1.4,2.2-1.7,2.3-2.7c0-0.9,0-2.5,0-3.4c0-6-9.7-6.2-9.8-6.2l-0.8,0c-0.3,0-9.4,0.2-9.8,6.2
					c-0.1,0.9,0,2.6,0,3.4c0,1.1,0.9,1.3,2.3,2.7c0.8,0.8,1.7,2.1,3,3.5C-317.1,29.3-316.6,31.3-316.5,32.4"/>
				<path class="st2" d="M-315.1,33.2V22.1c0-0.4,0.3-0.7,0.8-0.7c0.4,0,0.8,0.3,0.8,0.7v11.1C-313.6,33.6-315.1,33.6-315.1,33.2"/>
				<path class="st2" d="M-312.8,33.2V22.1c0-0.4,0.3-0.7,0.8-0.7c0.4,0,0.8,0.3,0.8,0.7v11.1C-311.3,33.6-312.8,33.6-312.8,33.2"/>
				<path class="st2" d="M-315.8,21.9c-0.1,0-0.1,0-0.2-0.1c-0.1-0.1-0.2-0.3-0.1-0.4l1.7-2l1,1.2l1.1-1.2l2,2
					c0.1,0.1,0.1,0.3,0,0.4c-0.1,0.1-0.4,0.1-0.5,0l-1.5-1.5l-1.1,1.2l-1-1.2l-1.2,1.4C-315.6,21.8-315.7,21.9-315.8,21.9"/>
			</g>
		</g>
		<rect x="-305.5" y="34.7" class="st1" width="1.8" height="14.5"/>
		<path class="st1" d="M-293.2,41c-0.3-0.8-0.6-1.3-1.1-1.7c-0.5-0.4-0.9-0.6-1.4-0.8c-0.5-0.2-1-0.2-1.6-0.2c-0.6,0-1.1,0-1.6,0.2
			c-0.5,0.2-0.9,0.4-1.4,0.8c-0.5,0.4-0.8,0.9-1.1,1.7c-0.3,0.8-0.5,1.7-0.5,2.8c0,1.1,0.2,1.9,0.5,2.7c0.3,0.8,0.6,1.3,1.1,1.7
			c0.5,0.4,0.9,0.6,1.4,0.8c0.5,0.2,1,0.2,1.6,0.2c0.6,0,1.1-0.1,1.6-0.2c0.5-0.2,0.9-0.4,1.4-0.8c0.5-0.4,0.8-0.9,1.1-1.7
			c0.3-0.8,0.4-1.7,0.4-2.7C-292.8,42.6-293,41.7-293.2,41 M-294.9,45.5c-0.2,0.5-0.4,0.9-0.7,1.1c-0.3,0.2-0.6,0.4-0.8,0.5
			c-0.3,0.1-0.6,0.2-1,0.2c-0.3,0-0.7-0.1-0.9-0.2c-0.3-0.1-0.6-0.3-0.8-0.5c-0.3-0.3-0.5-0.6-0.7-1.1c-0.2-0.5-0.3-1.1-0.3-1.8
			c0-0.7,0.1-1.4,0.3-1.9c0.2-0.5,0.4-0.9,0.7-1.1c0.3-0.2,0.6-0.4,0.8-0.5c0.3-0.1,0.6-0.1,0.9-0.1c0.3,0,0.7,0,1,0.1
			c0.3,0.1,0.6,0.3,0.8,0.5c0.3,0.3,0.5,0.6,0.7,1.1c0.2,0.5,0.2,1.1,0.2,1.8C-294.7,44.4-294.8,45-294.9,45.5"/>
		<path class="st1" d="M-282.1,38.3l0,1.2l-1.3,0c0.6,0.6,0.8,1.3,0.8,2.2c0,2.4-2.2,3.3-4.6,3.3c-1.4-0.1-1.9-0.3-2.2-0.5
			c-0.4,1.2-0.6,1.4,0.6,1.6c1,0.2,2.4,0.4,3,0.6c2.5,0.7,3.6,0.9,3.6,2.8c0,2.4-2.4,3.3-4.7,3.3c-1.8,0-4-0.8-4.2-2.8
			c-0.1-1.2,0-2.2,1.1-2.8c-0.7-1.2-0.7-2.1-0.2-3.2c-0.8-0.6-0.9-1.5-0.9-2.5c0-2.2,1.8-3.2,4.1-3.2c0.9,0,1.6,0,2.3,0L-282.1,38.3
			z M-289.1,48c-0.6,0.5-0.6,1.2-0.4,2c0.4,1.3,1.3,1.4,2.6,1.4c1.8,0,3.7-0.6,2.9-2.5c-0.4-0.8-2.6-1.2-3.6-1.3
			C-287.9,47.7-288.8,47.8-289.1,48 M-284.4,41.4c0-1.4-0.7-1.9-2.5-1.9c-1.8,0-2.7,0.5-2.7,2c0,1.5,0.9,2.2,2.7,2.2
			C-285.1,43.7-284.4,43-284.4,41.4"/>
		<path class="st1" d="M-280.2,34.7h1.8v1.8h-1.8V34.7z M-280.2,49.2h1.8V38.3h-1.8V49.2z"/>
		<path class="st1" d="M-276.6,43.7c0-1.1,0.1-2,0.4-2.8c0.3-0.8,0.6-1.3,1.1-1.7c0.5-0.4,0.9-0.6,1.4-0.8c0.5-0.2,1-0.2,1.6-0.2
			c0.9,0,1.9,0.2,2.8,0.6l0,1.9c-0.9-0.4-1.8-0.8-2.7-0.7c-0.9,0-1.7,0.3-2.1,0.8c-0.4,0.5-0.6,1.6-0.6,3c0,1.4,0.3,2.3,0.7,2.9
			c0.4,0.5,0.9,0.7,2,0.7c0.9,0,1.7-0.3,2.7-0.6l0,1.8c-0.9,0.4-1.8,0.6-2.8,0.6c-0.4,0-0.9,0-1.2-0.1c-0.4-0.1-0.8-0.2-1.2-0.5
			c-0.4-0.2-0.7-0.6-1-1c-0.3-0.4-0.5-0.9-0.7-1.6C-276.5,45.3-276.6,44.6-276.6,43.7"/>
		<path class="st2" d="M-267.6,45.7c0-0.5,0.1-0.9,0.3-1.3c0.2-0.4,0.4-0.7,0.7-0.9c0.3-0.2,0.6-0.4,1-0.6c0.4-0.2,0.8-0.3,1.1-0.4
			c0.3-0.1,0.7-0.1,1.1-0.2c0.4,0,0.7-0.1,0.9-0.1c0.2,0,0.4,0,0.6,0l1.7,0.1c0-0.9-0.3-1.5-0.9-1.8c-0.5-0.4-1.4-0.5-2.4-0.5
			c-1.2,0-2.1,0.3-3.1,0.6l0-1.7c1.1-0.4,2.2-0.6,3.3-0.6c1.5,0,2.7,0.4,3.5,1.1c0.8,0.7,1.2,1.8,1.2,3.3v3.2c0,0.7-0.2,1.2-0.5,1.7
			c-0.3,0.5-0.7,0.8-1.2,1c-0.5,0.2-1,0.4-1.4,0.4c-0.4,0.1-0.9,0.1-1.3,0.1c-0.3,0-0.7,0-1-0.1c-0.4,0-0.8-0.1-1.2-0.3
			c-0.4-0.2-0.8-0.3-1.2-0.6c-0.3-0.2-0.6-0.6-0.8-1C-267.5,46.8-267.6,46.3-267.6,45.7 M-265.9,45.7c0,1.3,0.7,1.8,2.7,1.8
			c1.9,0,2.8-0.5,2.8-1.7v-2c-0.5-0.1-1,0-1.8,0C-264.8,43.7-265.9,44.3-265.9,45.7"/>
		<rect x="-256.8" y="34.7" class="st2" width="1.8" height="14.5"/>
	</g>
	<g>
		<rect x="-324.8" y="-35.8" class="st1" width="23.9" height="36.9"/>
		<rect x="-321.6" y="-16" class="st0" width="1.5" height="1.6"/>
		<rect x="-321.6" y="-12.8" class="st0" width="1.5" height="7.7"/>
		<path class="st0" d="M-315.3-16h-1.6v3.1h-1.4v1.6h1.4v3.8c0,0.5,0.1,1,0.3,1.3c0.2,0.4,0.4,0.6,0.7,0.8c0.3,0.1,0.5,0.3,0.8,0.3
			C-315-5-314.7-5-314.5-5h0c0.4,0,0.7-0.1,1.1-0.2l0.2-0.1v-1.6l-0.3,0.1c-0.3,0.1-0.5,0.2-0.8,0.2c-0.5,0-0.7-0.1-0.7-0.2
			c-0.1-0.1-0.2-0.4-0.2-0.7v-3.9h2.1v-1.6h-2.1V-16z"/>
		<polygon class="st0" points="-312.3,-12.5 -310.7,-12.5 -309.3,-15.9 -311,-15.9 		"/>
		<path class="st0" d="M-304.5-8.6c-0.3-0.4-0.6-0.6-1.1-0.8c-0.4-0.1-0.8-0.3-1.2-0.4c-0.4-0.1-0.7-0.2-0.9-0.4
			c-0.3-0.2-0.3-0.3-0.3-0.4c0-0.4,0.1-0.9,1.4-0.9c0.6,0,1.1,0.2,1.6,0.5l0.3,0.2v-1.6l-0.1-0.1c-0.6-0.3-1.3-0.5-1.9-0.5
			c-0.9,0-1.6,0.2-2.1,0.7c-0.5,0.4-0.7,1-0.7,1.6c0,0.5,0.2,0.9,0.5,1.3c0.3,0.3,0.6,0.5,1.1,0.7c0.4,0.1,0.8,0.2,1.2,0.3
			c0.4,0.1,0.7,0.2,0.9,0.4c0.2,0.2,0.3,0.4,0.3,0.7c0,0.2,0,0.8-1.4,0.8c-0.7,0-1.4-0.2-2-0.6l-0.3-0.2v1.6l0.1,0.1
			c0.7,0.4,1.4,0.6,2.3,0.6c0.9,0,1.6-0.2,2.1-0.6c0.5-0.4,0.8-0.9,0.8-1.6C-304-7.8-304.2-8.3-304.5-8.6"/>
	</g>
</g>
<g>
	<g>
		<g>
			<rect x="7.8" y="23.7" class="st0" width="9" height="1.8"/>
			<rect x="7.8" y="26.4" class="st0" width="9" height="1.8"/>
			<rect x="7.8" y="29.1" class="st0" width="9" height="1.8"/>
			<path class="st0" d="M8.7,31.9v2c0,0.7,0.8,0.7,1.6,0.7h4c0.8,0,1.6,0,1.6-0.7v-2L8.7,31.9z"/>
			<path class="st0" d="M17.1,22.8H7.3l0-0.7c0-1.3-0.2-2.6-0.8-3.5c-0.9-1.5-2.2-2.6-3-3.4c-1.4-1.5-3-2.7-3-4.2c0-1.2,0-2.4,0-3.4
				c0.1-7.3,11.2-7.5,11.3-7.5l0.8,0c0.1,0,11.3,0.2,11.3,7.6c0,1,0.1,2.3,0,3.4c0,1.5-1.6,2.6-3.1,4.1c-0.8,0.8-2.1,1.8-3,3.4
				c-0.5,0.8-0.7,2.1-0.7,3.4L17.1,22.8z M8.9,21.4l6.8,0c0.1-1.1,0.6-3.1,1.5-4.1c1.2-1.4,2.2-2.6,3-3.4c1.4-1.4,2.2-1.7,2.3-2.7
				c0-0.9,0-2.5,0-3.4c0-6-9.7-6.2-9.8-6.2l-0.8,0c-0.3,0-9.4,0.2-9.8,6.2c-0.1,0.9,0,2.6,0,3.4c0,1.1,0.9,1.3,2.3,2.7
				c0.8,0.8,1.7,2.1,3,3.5C8.3,18.4,8.8,20.4,8.9,21.4"/>
			<path class="st0" d="M10.3,22.2V11.1c0-0.4,0.3-0.7,0.8-0.7c0.4,0,0.8,0.3,0.8,0.7v11.1C11.9,22.6,10.3,22.6,10.3,22.2"/>
			<path class="st0" d="M12.6,22.2V11.1c0-0.4,0.3-0.7,0.8-0.7c0.4,0,0.8,0.3,0.8,0.7v11.1C14.1,22.6,12.6,22.6,12.6,22.2"/>
			<path class="st0" d="M9.6,10.9c-0.1,0-0.1,0-0.2-0.1c-0.1-0.1-0.2-0.3-0.1-0.4l1.7-2l1,1.2l1.1-1.2l2,2c0.1,0.1,0.1,0.3,0,0.4
				c-0.1,0.1-0.4,0.1-0.5,0l-1.5-1.5L12,10.6l-1-1.2l-1.2,1.4C9.8,10.9,9.7,10.9,9.6,10.9"/>
		</g>
	</g>
	<rect x="20" y="23.7" class="st1" width="1.8" height="14.5"/>
	<path class="st1" d="M32.2,30c-0.3-0.8-0.6-1.3-1.1-1.7c-0.5-0.4-0.9-0.6-1.4-0.8c-0.5-0.2-1-0.2-1.6-0.2c-0.6,0-1.1,0-1.6,0.2
		c-0.5,0.2-0.9,0.4-1.4,0.8c-0.5,0.4-0.8,0.9-1.1,1.7c-0.3,0.8-0.5,1.7-0.5,2.8c0,1.1,0.2,1.9,0.5,2.7c0.3,0.8,0.6,1.3,1.1,1.7
		c0.5,0.4,0.9,0.6,1.4,0.8c0.5,0.2,1,0.2,1.6,0.2c0.6,0,1.1-0.1,1.6-0.2c0.5-0.2,0.9-0.4,1.4-0.8c0.5-0.4,0.8-0.9,1.1-1.7
		c0.3-0.8,0.4-1.7,0.4-2.7C32.6,31.7,32.5,30.8,32.2,30 M30.5,34.6c-0.2,0.5-0.4,0.9-0.7,1.1c-0.3,0.2-0.6,0.4-0.8,0.5
		c-0.3,0.1-0.6,0.2-1,0.2c-0.3,0-0.7-0.1-0.9-0.2c-0.3-0.1-0.6-0.3-0.8-0.5c-0.3-0.3-0.5-0.6-0.7-1.1c-0.2-0.5-0.3-1.1-0.3-1.8
		c0-0.7,0.1-1.4,0.3-1.9c0.2-0.5,0.4-0.9,0.7-1.1c0.3-0.2,0.6-0.4,0.8-0.5c0.3-0.1,0.6-0.1,0.9-0.1c0.3,0,0.7,0,1,0.1
		c0.3,0.1,0.6,0.3,0.8,0.5c0.3,0.3,0.5,0.6,0.7,1.1c0.2,0.5,0.2,1.1,0.2,1.8C30.8,33.5,30.7,34.1,30.5,34.6"/>
	<path class="st1" d="M43.4,27.3l0,1.2l-1.3,0c0.6,0.6,0.8,1.3,0.8,2.2c0,2.4-2.2,3.3-4.6,3.3c-1.4-0.1-1.9-0.3-2.2-0.5
		c-0.4,1.2-0.6,1.4,0.6,1.6c1,0.2,2.4,0.4,3,0.6c2.5,0.7,3.6,0.9,3.6,2.8c0,2.4-2.4,3.3-4.7,3.3c-1.8,0-4-0.8-4.2-2.8
		c-0.1-1.2,0-2.2,1.1-2.8c-0.7-1.2-0.7-2.1-0.2-3.2c-0.8-0.6-0.9-1.5-0.9-2.5c0-2.2,1.8-3.2,4.1-3.2c0.9,0,1.6,0,2.3,0L43.4,27.3z
		 M36.3,37.1c-0.6,0.5-0.6,1.2-0.4,2c0.4,1.3,1.3,1.4,2.6,1.4c1.8,0,3.7-0.6,2.9-2.5c-0.4-0.8-2.6-1.2-3.6-1.3
		C37.5,36.7,36.6,36.8,36.3,37.1 M41.1,30.5c0-1.4-0.7-1.9-2.5-1.9c-1.8,0-2.7,0.5-2.7,2c0,1.5,0.9,2.2,2.7,2.2
		C40.3,32.8,41.1,32,41.1,30.5"/>
	<path class="st1" d="M45.2,23.7H47v1.8h-1.8V23.7z M45.2,38.2H47V27.4h-1.8V38.2z"/>
	<path class="st1" d="M48.8,32.7c0-1.1,0.1-2,0.4-2.8c0.3-0.8,0.6-1.3,1.1-1.7c0.5-0.4,0.9-0.6,1.4-0.8c0.5-0.2,1-0.2,1.6-0.2
		c0.9,0,1.9,0.2,2.8,0.6l0,1.9c-0.9-0.4-1.8-0.8-2.7-0.7c-0.9,0-1.7,0.3-2.1,0.8c-0.4,0.5-0.6,1.6-0.6,3c0,1.4,0.3,2.3,0.7,2.9
		c0.4,0.5,0.9,0.7,2,0.7c0.9,0,1.7-0.3,2.7-0.6l0,1.8c-0.9,0.4-1.8,0.6-2.8,0.6c-0.4,0-0.9,0-1.2-0.1c-0.4-0.1-0.8-0.2-1.2-0.5
		c-0.4-0.2-0.7-0.6-1-1c-0.3-0.4-0.5-0.9-0.7-1.6C48.9,34.4,48.8,33.6,48.8,32.7"/>
	<path class="st0" d="M57.8,34.8c0-0.5,0.1-0.9,0.3-1.3c0.2-0.4,0.4-0.7,0.7-0.9c0.3-0.2,0.6-0.4,1-0.6c0.4-0.2,0.8-0.3,1.1-0.4
		c0.3-0.1,0.7-0.1,1.1-0.2c0.4,0,0.7-0.1,0.9-0.1c0.2,0,0.4,0,0.6,0l1.7,0.1c0-0.9-0.3-1.5-0.9-1.8C63.9,29.1,63.1,29,62,29
		c-1.2,0-2.1,0.3-3.1,0.6l0-1.7c1.1-0.4,2.2-0.6,3.3-0.6c1.5,0,2.7,0.4,3.5,1.1c0.8,0.7,1.2,1.8,1.2,3.3v3.2c0,0.7-0.2,1.2-0.5,1.7
		c-0.3,0.5-0.7,0.8-1.2,1c-0.5,0.2-1,0.4-1.4,0.4c-0.4,0.1-0.9,0.1-1.3,0.1c-0.3,0-0.7,0-1-0.1c-0.4,0-0.8-0.1-1.2-0.3
		c-0.4-0.2-0.8-0.3-1.2-0.6c-0.3-0.2-0.6-0.6-0.8-1C57.9,35.8,57.8,35.3,57.8,34.8 M59.5,34.7c0,1.3,0.7,1.8,2.7,1.8
		c1.9,0,2.8-0.5,2.8-1.7v-2c-0.5-0.1-1,0-1.8,0C60.6,32.8,59.5,33.3,59.5,34.7"/>
	<rect x="68.7" y="23.7" class="st0" width="1.8" height="14.5"/>
</g>
</svg>
