<?xml version="1.0" standalone="no"?>
<!DOCTYPE svg PUBLIC "-//W3C//DTD SVG 20010904//EN"
 "http://www.w3.org/TR/2001/REC-SVG-20010904/DTD/svg10.dtd">
<svg version="1.0" xmlns="http://www.w3.org/2000/svg"
 width="275.000000pt" height="51.000000pt" viewBox="0 0 275.000000 51.000000"
 preserveAspectRatio="xMidYMid meet">

<g transform="translate(0.000000,51.000000) scale(0.100000,-0.100000)"
fill="#000000" stroke="none">
<path d="M215 471 c-50 -13 -92 -39 -124 -78 -27 -33 -51 -97 -39 -108 2 -2
42 -8 88 -12 81 -7 83 -8 40 -14 -25 -4 -64 -8 -87 -8 -40 -1 -43 -3 -43 -29
0 -68 108 -174 161 -157 16 5 19 16 19 59 0 52 0 53 38 64 20 6 69 14 107 18
39 4 76 11 83 17 6 5 12 25 12 43 l0 34 -77 1 c-43 0 -87 4 -98 8 -18 7 -17 8
5 14 14 3 53 9 88 13 34 3 62 10 62 14 0 9 -40 61 -60 78 -46 38 -120 57 -175
43z m80 -33 c15 -7 24 -18 23 -27 -6 -31 -208 -93 -208 -64 0 21 45 66 84 84
48 22 66 23 101 7z"/>
<path d="M576 374 c-19 -19 -26 -37 -26 -64 0 -44 19 -64 83 -86 26 -9 54 -25
61 -36 8 -11 19 -17 25 -13 6 3 11 1 11 -5 0 -7 5 -6 14 2 24 23 -15 81 -62
93 -38 9 -72 33 -72 50 0 25 43 39 79 27 27 -10 33 -8 46 11 14 20 14 23 -2
34 -9 7 -42 13 -74 13 -48 0 -60 -4 -83 -26z"/>
<path d="M1120 380 c-11 -11 -20 -33 -20 -50 0 -18 -6 -33 -15 -36 -8 -4 -15
-17 -15 -30 0 -15 6 -24 15 -24 10 0 15 -10 15 -30 0 -20 6 -33 18 -37 9 -4
20 -11 24 -17 4 -6 8 10 8 36 0 43 2 47 27 50 39 4 42 33 4 46 -23 8 -28 15
-24 31 3 12 8 21 12 21 4 0 16 6 26 14 16 12 17 16 6 30 -18 22 -57 20 -81 -4z"/>
<path d="M1252 383 c-11 -22 -3 -202 9 -205 30 -5 34 0 39 42 4 37 9 46 28 48
31 5 29 38 -2 46 -20 5 -25 13 -28 43 -3 42 -30 57 -46 26z"/>
<path d="M1387 394 c-4 -4 -7 -74 -7 -155 0 -168 -6 -159 96 -159 60 0 65 2
74 26 16 41 13 44 -45 44 -54 0 -55 0 -55 30 0 27 3 30 34 30 47 0 66 9 66 31
0 21 -35 39 -76 39 -20 0 -24 5 -24 30 0 29 2 30 43 30 51 0 70 11 65 36 -3
16 -14 19 -84 22 -44 1 -83 0 -87 -4z"/>
<path d="M1942 315 c-23 -10 -40 -12 -58 -5 -14 6 -27 10 -30 10 -2 0 -4 -65
-4 -144 0 -142 0 -144 25 -160 13 -9 26 -16 29 -16 3 0 6 19 8 43 2 32 7 41
18 37 34 -10 90 -3 109 14 11 10 28 38 37 62 16 41 16 47 -1 89 -25 68 -76 94
-133 70z m56 -67 c28 -28 3 -118 -33 -118 -38 0 -63 81 -35 114 15 19 51 21
68 4z"/>
<path d="M2203 315 c-16 -11 -28 -13 -48 -5 -14 5 -28 10 -31 10 -2 0 -4 -54
-4 -119 0 -101 3 -120 16 -125 30 -11 44 13 44 74 0 76 5 87 51 111 43 21 50
43 20 59 -25 13 -22 13 -48 -5z"/>
<path d="M2363 323 c-34 -7 -81 -59 -89 -99 -8 -44 13 -101 46 -126 33 -24 87
-33 122 -19 25 10 27 13 16 36 -10 21 -16 25 -39 20 -32 -7 -69 9 -69 30 0 12
14 15 64 15 57 0 65 3 80 25 15 23 15 28 1 55 -25 48 -79 74 -132 63z m65 -65
c24 -24 13 -38 -31 -38 -53 0 -62 8 -40 32 18 21 53 24 71 6z"/>
<path d="M2593 320 c-32 -13 -56 -55 -49 -85 4 -17 22 -33 57 -50 28 -15 48
-31 46 -38 -4 -12 -13 -12 -74 -1 -30 6 -33 5 -33 -19 0 -57 105 -74 156 -26
47 44 24 96 -56 129 -40 16 -33 36 12 32 28 -2 37 2 46 22 10 22 8 25 -20 35
-36 13 -55 13 -85 1z"/>
<path d="M1612 308 c-17 -17 -15 -23 20 -64 22 -25 29 -40 22 -49 -5 -7 -22
-29 -38 -50 -23 -28 -27 -41 -20 -53 18 -28 34 -25 72 17 l36 41 42 -41 c72
-70 106 -22 39 53 l-36 39 30 36 c28 35 29 38 14 55 -22 25 -33 23 -59 -9
l-22 -28 -34 33 c-37 35 -48 38 -66 20z"/>
<path d="M865 300 c-11 -5 -14 -9 -6 -9 8 -1 11 -8 8 -20 -4 -17 -2 -18 20
-10 40 15 83 -20 83 -69 0 -25 -37 -72 -57 -72 -9 0 -25 7 -35 17 -20 18 -23
7 -9 -30 22 -56 120 -36 147 30 35 84 -12 174 -90 172 -23 0 -50 -4 -61 -9z"/>
</g>
</svg>
