<?xml version="1.0" encoding="UTF-8" standalone="no"?>
<!-- Created with Inkscape (http://www.inkscape.org/) -->

<svg
   xmlns:dc="http://purl.org/dc/elements/1.1/"
   xmlns:cc="http://creativecommons.org/ns#"
   xmlns:rdf="http://www.w3.org/1999/02/22-rdf-syntax-ns#"
   xmlns:svg="http://www.w3.org/2000/svg"
   xmlns="http://www.w3.org/2000/svg"
   xmlns:sodipodi="http://sodipodi.sourceforge.net/DTD/sodipodi-0.dtd"
   xmlns:inkscape="http://www.inkscape.org/namespaces/inkscape"
   width="374.966"
   height="374.966"
   id="svg2"
   version="1.1"
   inkscape:version="0.48.1 "
   sodipodi:docname="University of Tirana logo.svg">
  <defs
     id="defs4" />
  <sodipodi:namedview
     id="base"
     pagecolor="#ffffff"
     bordercolor="#666666"
     borderopacity="1.0"
     inkscape:pageopacity="0.0"
     inkscape:pageshadow="2"
     inkscape:zoom="1"
     inkscape:cx="343.11364"
     inkscape:cy="241.48566"
     inkscape:document-units="px"
     inkscape:current-layer="layer1"
     showgrid="false"
     fit-margin-top="0"
     fit-margin-left="0"
     fit-margin-right="0"
     fit-margin-bottom="0"
     inkscape:window-width="1366"
     inkscape:window-height="706"
     inkscape:window-x="-8"
     inkscape:window-y="-8"
     inkscape:window-maximized="1" />
  <metadata
     id="metadata7">
    <rdf:RDF>
      <cc:Work
         rdf:about="">
        <dc:format>image/svg+xml</dc:format>
        <dc:type
           rdf:resource="http://purl.org/dc/dcmitype/StillImage" />
        <dc:title />
      </cc:Work>
    </rdf:RDF>
  </metadata>
  <g
     inkscape:label="Layer 1"
     inkscape:groupmode="layer"
     id="layer1"
     transform="translate(-137.51688,-394.87931)">
    <g
       id="g3039"
       transform="matrix(0.7894582,0,0,0.7894582,28.953052,162.08462)">
      <path
         id="path2993"
         d="m 604.51063,471.39531 c 5.19375,19.46625 7.9725,39.9025 7.9725,60.9675 0,130.8 -106.6825,237.4825 -237.4825,237.4825 -130.80125,0 -237.48375,-106.6825 -237.48375,-237.4825 0,-18.82125 2.2175,-37.14375 6.395,-54.72 l 108.62375,55.0975 c 0.205,67.28125 55.1375,122.09125 122.465,122.09125 67.45375,0 122.46875,-55.015 122.46875,-122.46875 0,-2.20875 -0.0638,-4.40375 -0.18,-6.5825 l 107.22125,-54.385 z"
         style="fill:#000000;stroke:none"
         inkscape:connector-curvature="0" />
      <path
         id="path2995"
         d="m 375.00063,294.87906 c 93.01374,0 173.81374,53.9525 212.745,132.1575 l -102.53625,52.00875 c -11.91125,-24.48875 -31.7575,-44.45625 -56.15251,-56.53 l 0,200.18125 -108.11375,0 0,-200.18125 c -26.27125,13.00125 -47.26749,35.1575 -58.76125,62.25625 l -102.655,-52.06875 c 37.7925,-81.25375 120.22875,-137.82375 215.47376,-137.82375 z"
         style="fill:#cc1100;stroke:none"
         inkscape:connector-curvature="0" />
      <path
         id="path2997"
         d="m 213.93187,572.92781 1.46751,5.47375 -14.685,3.935 c -2.33001,0.62375 -3.82751,1.09875 -4.48001,1.41625 -1.04624,0.5325 -1.78625,1.3325 -2.22124,2.39 -0.43875,1.06375 -0.45,2.36 -0.04,3.8875 0.41626,1.55375 1.04625,2.64125 1.89501,3.26125 0.8425,0.62 1.75125,0.88375 2.71625,0.795 0.97249,-0.085 2.52749,-0.42125 4.67249,-0.99625 l 15,-4.02 1.4675,5.475 -14.24124,3.81625 c -3.25876,0.8725 -5.59501,1.3425 -7.02,1.4075 -1.425,0.0625 -2.7,-0.1775 -3.84125,-0.72375 -1.13375,-0.54875 -2.15875,-1.41875 -3.06375,-2.5975 -0.90625,-1.18375 -1.64375,-2.85375 -2.22,-5.00125 -0.69375,-2.5875 -0.9225,-4.63 -0.68125,-6.13 0.24125,-1.49875 0.735,-2.76 1.48,-3.7925 0.745,-1.03375 1.6125,-1.8125 2.59375,-2.34 1.45625,-0.775 3.7025,-1.5675 6.73749,-2.38 l 14.46375,-3.87625 z m -17.9425,37.39875 25.645,-11.41875 2.24375,5.04 -12.45125,18.12125 17.12375,-7.625 2.14375,4.8125 -25.645,11.4175 -2.31625,-5.2 12.12375,-17.78125 -16.725,7.445 -2.1425,-4.81125 z m 14.05375,27.85125 23.80625,-14.87625 3.0025,4.805 -23.80625,14.87625 -3.0025,-4.805 z m 12.11625,17.3825 15.94375,-25.18875 3.78625,4.8475 -12.0025,18.38375 20.60625,-7.3725 3.7025,4.73875 -28.31,9.36 -3.72625,-4.76875 z m 14.6,16.83875 19.5,-20.19375 14.97125,14.4575 -3.30125,3.4175 -10.89375,-10.52 -4.3225,4.47625 10.13751,9.78875 -3.28251,3.4 -10.13749,-9.78875 -5.3075,5.495 11.28,10.8925 -3.28875,3.40375 -15.355,-14.82875 z m 21.80875,19.58 15.2875,-23.54375 10.01001,6.5 c 2.51625,1.63375 4.20249,3.0325 5.06874,4.195 0.86625,1.1625 1.29375,2.50875 1.27875,4.03375 -0.02,1.53 -0.4825,2.98375 -1.38624,4.37625 -1.145,1.765 -2.61626,2.89125 -4.4,3.36875 -1.78125,0.4725 -3.81,0.19125 -6.06875,-0.855 0.6375,1.2725 1.06125,2.48125 1.2625,3.635 0.2025,1.15125 0.2775,3.0075 0.2225,5.575 l -0.10625,6.4625 -5.68375,-3.69125 -0.10875,-7.3575 c -0.0325,-2.625 -0.12,-4.31625 -0.25875,-5.085 -0.14,-0.76875 -0.40625,-1.4025 -0.79375,-1.91125 -0.39125,-0.5025 -1.1275,-1.10625 -2.22375,-1.8175 l -0.96,-0.62375 -6.3825,9.82875 -4.7575,-3.09 z m 13.5825,-10.5 3.51375,2.2825 c 2.28001,1.48125 3.76501,2.3125 4.46001,2.4925 0.68875,0.17375 1.35125,0.1275 1.98,-0.135 0.625,-0.2625 1.16875,-0.74375 1.62875,-1.45 0.515,-0.795 0.715,-1.56875 0.61,-2.3325 -0.105,-0.76125 -0.50375,-1.45625 -1.19125,-2.09 -0.35,-0.2975 -1.49001,-1.0775 -3.42,-2.33125 l -3.705,-2.405 -3.87625,5.96875 z m 15.52125,18.51625 5.22751,1.83875 c -0.48751,1.82 -0.45251,3.3375 0.10499,4.55625 0.5525,1.20875 1.60626,2.18375 3.17,2.91375 1.65251,0.77 3.06625,1.00375 4.23001,0.6875 1.16624,-0.305 1.96875,-0.9275 2.40499,-1.86375 0.28126,-0.60375 0.34126,-1.195 0.18251,-1.7825 -0.15125,-0.58875 -0.59625,-1.245 -1.335,-1.96375 -0.49751,-0.49125 -1.7025,-1.5 -3.59125,-3.03 -2.4375,-1.96625 -3.97625,-3.7075 -4.61875,-5.22 -0.91375,-2.12625 -0.90001,-4.1975 0.04,-6.21125 0.60375,-1.2975 1.53625,-2.335 2.7975,-3.12375 1.25999,-0.7825 2.72,-1.1475 4.37624,-1.09625 1.66,0.06 3.46126,0.54 5.4175,1.4525 3.19876,1.49125 5.27251,3.30875 6.2375,5.46125 0.95626,2.15375 0.93376,4.41625 -0.075,6.79375 l -5.24,-2.17 c 0.38999,-1.41 0.35625,-2.57375 -0.10126,-3.47875 -0.45499,-0.9125 -1.40625,-1.7025 -2.85125,-2.37625 -1.4925,-0.695 -2.80749,-0.94 -3.935,-0.715 -0.72875,0.13625 -1.24625,0.535 -1.55375,1.19375 -0.28125,0.60375 -0.26625,1.2375 0.0437,1.90125 0.39251,0.84625 1.70251,2.15 3.92875,3.9025 2.2225,1.75875 3.7875,3.22875 4.69125,4.415 0.9,1.1925 1.43625,2.48625 1.60625,3.90125 0.16375,1.41125 -0.1275,2.91875 -0.87625,4.525 -0.67875,1.45625 -1.72,2.63625 -3.12375,3.525 -1.405,0.8975 -2.99,1.31125 -4.75875,1.23625 -1.77125,-0.0688 -3.76125,-0.6225 -5.97125,-1.6525 -3.21625,-1.5 -5.3425,-3.3925 -6.3725,-5.68375 -1.03,-2.29125 -1.05,-4.94 -0.055,-7.93625 z m 24.33501,19.92125 9.13874,-26.5425 5.35875,1.84375 -9.14,26.5425 -5.3575,-1.84375 z m 19.6175,5.65875 5.64124,-22.6275 -8.07875,-2.015 1.14875,-4.61125 21.64625,5.3975 -1.15,4.61 -8.06,-2.00875 -5.6425,22.6275 -5.505,-1.3725 z m 20.6525,3.52125 2.44624,-27.965 20.73251,1.81375 -0.415,4.7325 -15.08625,-1.32 -0.54251,6.2 14.03875,1.2275 -0.41125,4.7075 -14.03875,-1.2275 -0.66625,7.61 15.62,1.3675 -0.4125,4.715 -21.265,-1.86125 z m 35.58999,0.9125 -2.03375,-23.2325 -8.295,0.72625 -0.415,-4.73375 22.22375,-1.94375 0.41375,4.73375 -8.275,0.72375 2.0325,23.23125 -5.65125,0.495 z m 20.20001,-2.84875 -5.35626,-27.55625 5.5625,-1.0825 5.355,27.55625 -5.56125,1.0825 z m 24.44374,-5.8525 -9.13999,-26.5425 5.3575,-1.845 9.14,26.54375 -5.35751,1.84375 z m 28.92626,-12.06 -10.94875,-20.59 -7.35251,3.90875 -2.22999,-4.195 19.6975,-10.4725 2.22999,4.19375 -7.33499,3.90125 10.94875,20.59125 -5.01,2.6625 z m 17.64,-10.21125 -16.50125,-22.71 4.585,-3.33125 16.5,22.71125 -4.58375,3.33 z m 11.68125,-8.15 -18.4175,-21.1875 9.0075,-7.82875 c 2.265,-1.96875 4.07375,-3.205 5.43,-3.71625 1.35625,-0.5125 2.76875,-0.55375 4.22875,-0.1175 1.46625,0.44125 2.7375,1.28625 3.825,2.53875 1.38125,1.5875 2.05875,3.31125 2.0275,5.1575 -0.0375,1.8425 -0.8675,3.71625 -2.49625,5.59875 1.39875,-0.2625 2.67875,-0.3375 3.8425,-0.2125 1.16375,0.12375 2.9675,0.56375 5.42125,1.32375 l 6.18125,1.88375 -5.11375,4.44625 -7.1025,-1.92375 c -2.5325,-0.6925 -4.1825,-1.07625 -4.96,-1.155 -0.7775,-0.0763 -1.46,0.006 -2.05625,0.2375 -0.59,0.23625 -1.37375,0.77875 -2.36125,1.6375 l -0.8625,0.75 7.68875,8.84375 -4.2825,3.72375 z m -6.34875,-15.95125 3.1625,-2.74875 c 2.0525,-1.785 3.26125,-2.9825 3.625,-3.60125 0.3575,-0.61375 0.49624,-1.2625 0.4175,-1.94 -0.0812,-0.6725 -0.39251,-1.32875 -0.94625,-1.96625 -0.62126,-0.715 -1.31,-1.11875 -2.0725,-1.2275 -0.76251,-0.11 -1.54001,0.0813 -2.33875,0.56875 -0.3825,0.255 -1.44625,1.135 -3.1825,2.645 l -3.335,2.8975 4.67,5.3725 z m 45.9125,-24.9225 -3.96625,4.725 -6.4625,-2.2225 -7.21375,8.59625 3.4,5.87375 -3.865,4.60625 -14.47625,-26.42125 3.8525,-4.59125 28.73125,9.43375 z m -15.21625,0.85625 -10.46875,-3.7325 5.545,9.6 4.92375,-5.8675 z m 19.00125,-5.7425 -24.5525,-13.61 2.675,-4.825 21.965,-0.96 -16.395,-9.08875 2.55375,-4.60875 24.5525,13.61 -2.76,4.97875 -21.49625,1.02125 16.01125,8.875 -2.55375,4.6075 z m 14.99875,-27.96625 -26.2075,-10.06 7.4575,-19.43 4.43625,1.70375 -5.4275,14.1375 5.81,2.23 5.05,-13.15625 4.41125,1.69375 -5.05,13.15625 7.1325,2.73875 5.61875,-14.63875 4.41875,1.695 -7.65,19.93 z m -26.305,-14.2975 -4.3075,-1.655 1.655,-4.3075 4.3075,1.65375 -1.655,4.30875 z m 2.95,-7.68375 -4.3075,-1.65375 1.66,-4.32625 4.3075,1.65375 -1.66,4.32625 z m 23.8375,-6.24 0.71125,-5.4975 c 1.88375,0.1 3.36,-0.25125 4.43625,-1.0475 1.0675,-0.7925 1.80125,-2.025 2.19125,-3.70875 0.40875,-1.77625 0.34375,-3.2075 -0.2075,-4.28 -0.54125,-1.07625 -1.3175,-1.73125 -2.32375,-1.96375 -0.65,-0.15 -1.24,-0.0862 -1.78125,0.19125 -0.545,0.27 -1.0925,0.8425 -1.64375,1.715 -0.3775,0.58875 -1.1125,1.97625 -2.2175,4.1425 -1.41625,2.7925 -2.8,4.66 -4.145,5.60375 -1.89,1.335 -3.91875,1.75125 -6.08375,1.25125 -1.39375,-0.32125 -2.6025,-1.0175 -3.6375,-2.0875 -1.0275,-1.06875 -1.6875,-2.42125 -1.98125,-4.0525 -0.28625,-1.63625 -0.1925,-3.49875 0.29375,-5.60125 0.79375,-3.43875 2.14,-5.845 4.04375,-7.235 1.90875,-1.385 4.1275,-1.8325 6.6625,-1.34 l -1.0325,5.57625 c -1.4625,-0.0888 -2.5925,0.18625 -3.3825,0.8225 -0.7975,0.635 -1.3725,1.73 -1.73125,3.2825 -0.37,1.605 -0.33625,2.94125 0.1175,3.99875 0.285,0.68375 0.78375,1.1075 1.49125,1.27 0.64875,0.15 1.26625,0.005 1.85125,-0.4375 0.74625,-0.55875 1.74875,-2.1125 3,-4.65375 1.2575,-2.54125 2.3725,-4.37625 3.34375,-5.50625 0.97875,-1.13 2.13375,-1.9225 3.48125,-2.3825 1.34625,-0.455 2.88125,-0.4825 4.6075,-0.085 1.56625,0.3625 2.9375,1.135 4.09875,2.3225 1.16875,1.18875 1.90375,2.65375 2.19875,4.39875 0.3,1.74625 0.17375,3.81 -0.375,6.18375 -0.79875,3.45875 -2.2075,5.93125 -4.235,7.415 -2.02625,1.485 -4.6125,2.05375 -7.75125,1.705 z"
         style="fill:#ffffff;stroke:none"
         inkscape:connector-curvature="0" />
      <path
         inkscape:connector-curvature="0"
         id="path16"
         d="m 355.37985,305.82323 c -1.23532,-0.005 -2.29503,0.39286 -2.96014,1.45355 -2.99416,-0.16698 -6.59562,-0.34028 -5.93089,3.37393 0.59603,-0.0552 0.91843,-0.39555 1.10342,-0.77453 0.26369,-0.54159 1.16237,-0.63092 2.00526,-0.3289 0.73442,0.26281 1.32686,0.65452 0.78512,1.30501 -0.27674,0.3325 -1.36175,0.49443 -2.02647,0.3289 -0.66531,-0.16552 -1.90204,-0.3643 -2.62063,-0.4456 -0.48497,-0.0552 -1.43435,-0.6697 -1.87794,-1.52783 -0.44357,-0.85957 -1.58098,-1.88302 -2.30233,-1.27317 -0.72033,0.60984 0.13906,1.64369 0.8594,2.28111 0.72134,0.63742 2.18477,1.43232 2.96014,1.43232 1.0267,0 2.03119,0.24894 2.55696,0.36074 0.2496,1.9573 2.82387,2.84556 4.98662,2.79039 2.16159,-0.0552 5.01679,0.99738 7.64968,3.17233 3.40987,2.81731 5.81844,12.12703 0.0531,12.12703 -3.60269,0 -3.04957,-3.60351 -2.93891,-5.65504 0.11069,-2.05094 -0.99867,-4.26992 -3.43759,-5.15637 -2.43891,-0.88703 -7.42052,-2.59711 -8.80615,-3.37393 -0.55466,-0.38767 -1.14129,0.98153 -1.22013,1.77184 -0.0563,0.55408 -0.68088,0.60031 -2.44026,0.0531 -4.9895,-1.55248 -9.54106,-4.21476 -11.70264,-8.3181 -2.16202,-4.1019 -6.23763,-0.0683 -4.2121,3.38452 2.43994,4.15562 10.58981,7.5361 15.74498,8.20139 2.39579,0.30856 2.37973,3.18182 0.1167,3.50125 -4.71216,0.66589 -9.32852,0.57325 -12.20129,-3.16173 -2.21779,-2.88308 -4.39954,-0.29341 -3.43759,1.99465 2.05095,4.87842 9.01054,6.93712 15.79803,3.66039 1.60808,-0.77639 3.33349,-0.64796 1.94161,1.27318 -3.4922,4.82324 -8.14526,5.56729 -13.97315,1.99465 -1.71857,-1.05271 -3.03899,-0.8887 -3.42697,-0.22281 -0.68228,1.16842 -0.99017,2.22654 0.99733,3.66039 4.37922,3.15968 9.44348,2.9347 13.51691,0.82756 1.60808,-0.83141 4.54662,-1.49542 1.9416,1.94161 -2.60575,3.43774 -9.25162,5.20812 -11.96788,3.26781 -2.71682,-1.94088 -6.09827,-0.16133 -3.93625,2.83283 2.16218,2.99315 6.64912,2.21231 8.70006,1.10342 2.05153,-1.10889 5.21565,-2.60508 6.54626,-3.21477 1.33017,-0.61028 1.94259,0.43391 0.435,2.1644 -3.38214,3.88133 -6.86635,7.14358 -11.58593,5.60198 -2.71624,-0.88658 -5.20931,-1.00297 -4.48795,2.32356 0.72034,3.32536 6.32075,3.5521 9.09262,1.88855 2.77244,-1.66298 5.26467,-3.54843 6.92822,-5.15638 1.66297,-1.60751 3.34335,-1.54351 1.49598,1.16709 -4.15751,6.0978 -7.70425,10.55931 -13.63362,9.42152 -5.48812,-1.05372 -4.12434,2.23835 -2.93892,3.26782 3.38154,2.93798 9.31735,2.16675 16.41339,-6.53565 0.55366,-0.68012 1.4852,-0.48408 0.99733,0.77451 -3.1597,8.14934 -8.42682,13.41264 -13.52753,12.13764 -2.65266,-0.66356 -5.24723,0.81473 -2.55697,3.16174 3.04919,2.66121 8.592,1.66566 12.58325,-2.76917 3.99183,-4.43541 6.43375,-7.59882 7.32078,-9.26238 0.88659,-1.66238 2.22515,-1.71713 2.05831,0.44562 -0.16611,2.16159 -1.77734,6.38017 -4.60467,7.76639 -1.46332,0.71743 -2.77128,2.32415 0,3.54368 2.77245,1.21938 6.03884,-3.71082 8.70006,-10.91751 0.31262,-0.8468 2.14984,-1.05914 2.11136,0.55171 -0.0556,2.27324 -1.16783,4.15359 -2.38722,5.26248 -1.21997,1.10874 -0.26176,2.96508 1.38989,2.21744 2.32827,-1.05327 3.79819,-2.6002 4.71076,-4.93356 0.4992,-1.27456 1.62401,-1.71498 0.99733,0.27586 -1.88469,5.98716 -6.09584,8.8783 -11.63898,11.64958 0.83156,0.83141 1.5749,1.74466 2.32355,2.49331 -3.40928,1.74646 -6.98662,2.90967 -9.81408,4.07417 -2.24551,-1.49687 -4.24417,-2.33118 -5.24126,-3.74527 -0.33236,-1.91257 -2.65056,-2.7406 -4.14844,-1.90977 -2.57686,-0.99767 -4.40659,-0.7559 -4.57283,1.65513 1.49685,-0.24945 2.73851,-0.48897 3.81953,0.50928 0.49803,1.1645 2.0788,1.74041 3.57551,1.24135 1.66298,0.99767 3.07651,1.99834 4.07417,2.66306 -3.15983,-0.0828 -5.48747,-0.24825 -7.15102,-0.41378 -1.57905,-1.57963 -3.07957,-1.5791 -4.24393,-0.49866 -1.91257,-0.41572 -3.40535,0.4696 -3.90441,2.13257 1.44125,-0.1661 2.77081,-0.66896 3.71343,-0.16976 0.77595,1.44126 2.94259,1.49832 4.32881,0.44562 2.10656,-0.0563 6.20897,-0.1061 7.15102,-0.1061 -1.38564,0.83155 -3.05221,1.8245 -3.88319,2.32355 -3.2709,-0.66531 -5.04933,0.60751 -4.82747,2.99197 -0.77595,1.21954 -0.72041,2.93822 0.22281,3.71344 0.22055,-0.99766 0.78327,-2.27163 1.55965,-2.99197 1.99547,0.38739 3.43264,-0.27568 4.04234,-2.49331 1.27455,-0.83157 2.94261,-1.89058 3.60734,-2.33416 0.66588,-0.44286 1.19544,-0.95133 2.71611,-0.27586 1.49672,0.66589 2.8799,1.22033 3.76649,1.71879 0.49905,1.94031 2.38795,2.05469 3.60734,1.16709 0.77652,0.44344 1.43377,1.21614 1.87794,2.04769 0.72033,-1.27514 0.33584,-2.99472 -1.05037,-3.43758 -0.4992,-1.49744 -2.2687,-1.99352 -3.54369,-1.27318 -1.05328,-0.44301 -2.56008,-1.1656 -3.22538,-1.44294 2.16202,-0.77536 7.65097,-2.81836 9.59128,-3.64978 1.82923,1.38608 3.88231,2.71137 5.37918,2.32356 0.22171,-1.33062 0.91275,-2.43033 1.83549,-4.32881 1.469,-3.02131 3.29937,-5.83914 4.79565,-7.58602 1.49729,-1.74647 3.0109,-0.75431 2.90709,1.65513 -0.24902,5.82047 -4.54436,14.53201 -10.86446,14.86436 -2.16102,0.11453 -3.02541,0.54687 -1.8355,2.1538 1.10888,1.49671 4.54895,1.69984 6.46138,0.28646 1.91258,-1.41396 2.57404,-1.33356 2.18563,0.55171 -0.3874,1.88483 -2.54385,2.60214 -4.14844,2.71611 -2.32828,0.16684 -4.99499,0.99605 -2.83283,2.99197 2.16217,1.9949 5.71235,0.88165 8.3181,-2.11135 0.90402,-1.0392 1.61364,-1.32578 1.54904,0.33951 -0.11059,2.88237 -1.82269,4.70532 -3.59674,5.09272 -1.77361,0.38797 -3.55308,0.85966 -3.05562,1.88854 0.832,1.71859 3.60463,1.99792 5.15638,1.16709 1.55305,-0.83214 3.22077,-2.38942 3.55428,-3.33149 0.33237,-0.94278 1.00907,-0.40133 0.82757,0.89123 -0.38739,2.77186 -2.33417,2.71337 -2.33417,4.98662 0,2.2728 1.88954,4.49676 4.10601,6.99187 2.21865,-2.49511 4.10601,-4.71907 4.10601,-6.99187 0,-2.27325 -1.94649,-2.21476 -2.33417,-4.98662 -0.1815,-1.29256 0.50567,-1.83401 0.83818,-0.89123 0.3325,0.94207 1.99003,2.49935 3.54367,3.33149 1.55074,0.83083 4.32584,0.5515 5.15638,-1.16709 0.49803,-1.02888 -1.27068,-1.50057 -3.04501,-1.88854 -1.77289,-0.3874 -3.49699,-2.21035 -3.60735,-5.09272 -0.0654,-1.66529 0.64445,-1.37871 1.54904,-0.33951 2.60488,2.993 6.15608,4.10625 8.3181,2.11135 2.16203,-1.99592 -0.49467,-2.82513 -2.82222,-2.99197 -1.60445,-0.11395 -3.76992,-0.83128 -4.15905,-2.71611 -0.38768,-1.88527 0.27335,-1.96567 2.18563,-0.55171 1.91228,1.41336 5.35351,1.21025 6.46138,-0.28646 1.19064,-1.60693 0.32507,-2.03923 -1.8355,-2.1538 -6.32054,-0.33235 -10.61617,-9.04389 -10.86446,-14.86436 -0.10312,-2.40944 1.41924,-3.4016 2.9177,-1.65513 1.49557,1.74688 3.32622,4.56471 4.79564,7.58602 0.92202,1.89848 1.60274,2.99819 1.82489,4.32881 1.49701,0.38781 3.54967,-0.93748 5.37918,-2.32356 1.94132,0.83142 7.42926,2.87442 9.59128,3.64978 -0.66501,0.27734 -2.16208,0.99993 -3.21477,1.44294 -1.27486,-0.72034 -3.05481,-0.22426 -3.5543,1.27318 -1.3852,0.44286 -1.77056,2.16244 -1.05037,3.43758 0.44432,-0.83155 1.11174,-1.60425 1.88855,-2.04769 1.21968,0.8876 3.09724,0.77322 3.59673,-1.16709 0.88572,-0.49846 2.28009,-1.0529 3.7771,-1.71879 1.52024,-0.67547 2.04965,-0.167 2.71611,0.27586 0.66502,0.44358 2.32043,1.50259 3.59673,2.33416 0.60839,2.21763 2.05791,2.8807 4.05295,2.49331 0.77682,0.72034 1.32834,1.99429 1.54904,2.99197 0.9438,-0.77523 0.99963,-2.49391 0.22281,-3.71344 0.22216,-2.38447 -1.55758,-3.65728 -4.82747,-2.99197 -0.832,-0.49905 -2.48592,-1.492 -3.87259,-2.32355 0.94235,0 5.04563,0.05 7.15103,0.1061 1.38664,1.0527 3.54283,0.99564 4.3182,-0.44562 0.94234,-0.4992 2.27305,0.004 3.71343,0.16976 -0.49803,-1.66297 -1.99213,-2.54829 -3.90441,-2.13257 -1.16451,-1.08044 -2.66416,-1.08097 -4.24393,0.49866 -1.66254,0.16553 -3.99148,0.33102 -7.15102,0.41378 0.99752,-0.66472 2.41018,-1.66539 4.07417,-2.66306 1.497,0.49906 3.07748,-0.0769 3.57551,-1.24135 1.08174,-0.99825 2.33313,-0.75873 3.83014,-0.50928 -0.16553,-2.41103 -1.99553,-2.6528 -4.57283,-1.65513 -1.49701,-0.83083 -3.8251,-0.003 -4.15905,1.90977 -0.99607,1.41409 -2.99647,2.2484 -5.24126,3.74527 -2.82849,-1.1645 -6.4048,-2.32771 -9.81408,-4.07417 0.74778,-0.74865 1.50362,-1.6619 2.33416,-2.49331 -5.54226,-2.77128 -9.7649,-5.66242 -11.64959,-11.64958 -0.62725,-1.99084 0.49784,-1.55043 0.99733,-0.27586 0.9133,2.33335 2.38321,3.88029 4.71076,4.93356 1.65237,0.74764 2.60956,-1.1087 1.38989,-2.21744 -1.21968,-1.1089 -2.33204,-2.98924 -2.38722,-5.26248 -0.0391,-1.61085 1.79918,-1.39852 2.11136,-0.55171 2.66151,7.20669 5.92819,12.13689 8.70006,10.91751 2.77186,-1.21954 1.46361,-2.82625 0,-3.54368 -2.82704,-1.38622 -4.42708,-5.60481 -4.59406,-7.76639 -0.16552,-2.16275 1.16053,-2.10801 2.0477,-0.44562 0.88717,1.66356 3.32924,4.82697 7.32078,9.26238 3.99154,4.43483 9.53406,5.43038 12.58325,2.76917 2.69055,-2.34702 0.0958,-3.8253 -2.55697,-3.16174 -5.10087,1.275 -10.36798,-3.9883 -13.52753,-12.13764 -0.48787,-1.25859 0.45473,-1.45463 1.00794,-0.77451 7.09591,8.7024 13.02254,9.47363 16.40278,6.53565 1.18628,-1.02947 2.54963,-4.32154 -2.93892,-3.26782 -5.92995,1.13778 -9.47655,-3.32372 -13.63362,-9.42152 -1.84839,-2.7106 -0.168,-2.7746 1.49598,-1.16709 1.66254,1.60795 4.15636,3.4934 6.92822,5.15638 2.77187,1.66355 8.37098,1.43681 9.09262,-1.88855 0.72019,-3.32653 -1.77127,-3.21015 -4.48795,-2.32356 -4.71899,1.5416 -8.20423,-1.72065 -11.58593,-5.60198 -1.50863,-1.73049 -0.88443,-2.77468 0.44561,-2.1644 1.33003,0.60969 4.48543,2.10588 6.53565,3.21477 2.05167,1.10889 6.53804,1.88973 8.70006,-1.10342 2.16202,-2.99416 -1.22102,-4.77371 -3.93625,-2.83283 -2.71668,1.94031 -9.363,0.16993 -11.96788,-3.26781 -2.60634,-3.43703 0.33423,-2.77302 1.9416,-1.94161 4.07431,2.10714 9.1483,2.33212 13.52752,-0.82756 1.98779,-1.43385 1.67977,-2.49197 0.99733,-3.66039 -0.38769,-0.66589 -1.71988,-0.8299 -3.43758,0.22281 -5.82832,3.57264 -10.48109,2.82859 -13.97315,-1.99465 -1.39247,-1.92114 0.33424,-2.04957 1.94161,-1.27318 6.78808,3.27673 13.74635,1.21803 15.79803,-3.66039 0.96266,-2.28806 -1.22039,-4.87773 -3.43759,-1.99465 -2.8735,3.73498 -7.48956,3.82762 -12.20129,3.16173 -2.26222,-0.31943 -2.27904,-3.1927 0.1167,-3.50125 5.15459,-0.6653 13.30563,-4.04577 15.74498,-8.20139 2.02553,-3.45284 -2.04863,-7.48642 -4.2121,-3.38452 -2.16202,4.10334 -6.71213,6.76562 -11.70264,8.3181 -1.75982,0.54726 -2.38509,0.50104 -2.44026,-0.0531 -0.0798,-0.79031 -0.66547,-2.15951 -1.22013,-1.77184 -1.3852,0.77682 -6.36679,2.4869 -8.80615,3.37393 -2.43935,0.88645 -3.54793,3.10543 -3.43759,5.15637 0.11036,2.05153 0.66494,5.65504 -2.93891,5.65504 -5.76443,0 -3.35775,-9.30972 0.0531,-12.12703 2.63246,-2.17495 5.48765,-3.22752 7.64968,-3.17233 2.16202,0.0551 4.73687,-0.83309 4.98662,-2.79039 0.52562,-0.1118 1.5304,-0.36074 2.55696,-0.36074 0.77537,0 2.2385,-0.7949 2.96014,-1.43232 0.7202,-0.63742 1.57959,-1.67127 0.8594,-2.28111 -0.72164,-0.60985 -1.85947,0.4136 -2.30233,1.27317 -0.44431,0.85813 -1.39152,1.47264 -1.87794,1.52783 -0.71729,0.0813 -1.95561,0.28008 -2.62063,0.4456 -0.66647,0.16553 -1.74914,0.003 -2.02647,-0.3289 -0.5416,-0.65049 0.061,-1.0422 0.79573,-1.30501 0.84216,-0.30202 1.73039,-0.21269 1.99465,0.3289 0.18441,0.37898 0.5081,0.71934 1.10342,0.77453 0.66501,-3.71421 -2.93687,-3.54091 -5.93089,-3.37393 -1.77433,-2.82849 -6.37868,-0.89225 -9.53823,0.60476 -1.49701,0.33395 -4.04067,0.16209 -5.31553,-0.39257 -1.27485,-0.55466 -1.21737,0.11163 -0.77451,0.72148 0.44431,0.60983 2.05111,1.72301 2.71611,1.88854 0.66502,0.16698 0.44351,0.49718 0.22281,0.77452 -0.70131,0.877 -2.28239,1.72514 -3.00257,1.83549 -0.7202,0.11181 -0.9394,0.43353 -0.55172,0.71087 0.38768,0.27733 0.94133,0.61814 1.49599,0.78512 0.55466,0.16553 0.50226,0.38471 0.16975,0.82757 -0.68679,0.91476 -2.50029,1.83059 -3.10868,1.71879 -0.60983,-0.11035 -0.6557,0.22133 -0.435,0.49867 0.22215,0.27732 1.05168,0.66841 1.49599,0.66841 0.44286,0 0.47781,0.081 0.1061,0.55172 -0.4022,0.50979 -1.3007,1.61014 -2.10076,1.37927 -1.08173,-0.31247 -1.35104,-0.0435 -1.01853,0.41379 0.78262,1.07751 0.73668,1.55509 -0.81696,1.81427 -1.55116,-0.25918 -1.58926,-0.73676 -0.80635,-1.81427 0.33251,-0.45724 0.0623,-0.72626 -1.01854,-0.41379 -0.80033,0.23087 -1.70929,-0.86948 -2.11136,-1.37927 -0.37155,-0.47075 -0.32623,-0.55172 0.11672,-0.55172 0.44401,0 1.27484,-0.39109 1.49598,-0.66841 0.22187,-0.27734 0.16423,-0.60902 -0.44561,-0.49867 -0.6097,0.1118 -2.42305,-0.80403 -3.10868,-1.71879 -0.33237,-0.44286 -0.38491,-0.66204 0.16975,-0.82757 0.55409,-0.16698 1.10859,-0.50779 1.49599,-0.78512 0.38797,-0.27734 0.1692,-0.59906 -0.55172,-0.71087 -0.72033,-0.11035 -2.29093,-0.95849 -2.99196,-1.83549 -0.2223,-0.27734 -0.45267,-0.60754 0.2122,-0.77452 0.66588,-0.16553 2.27251,-1.27871 2.71611,-1.88854 0.44344,-0.60985 0.4999,-1.27614 -0.77451,-0.72148 -1.27502,0.55466 -3.81866,0.72652 -5.31553,0.39257 -1.9748,-0.93563 -4.51922,-2.04896 -6.57809,-2.05831 z m 1.05037,3.37392 c 0.57101,0.004 1.18105,0.17131 1.75062,0.45623 0.77529,0.38908 0.50352,1.05317 -0.10609,1.22013 -0.60961,0.16695 -1.77615,0.17119 -2.66307,-0.1061 -0.88645,-0.2773 -0.7228,-1.05742 0.053,-1.38989 0.29111,-0.12467 0.62289,-0.18275 0.96549,-0.18037 z m 32.89045,0 c 0.34261,-0.002 0.67439,0.0557 0.9655,0.18037 0.77585,0.33247 0.9395,1.11259 0.053,1.38989 -0.88692,0.27729 -2.05346,0.27305 -2.66307,0.1061 -0.60962,-0.16696 -0.88138,-0.83105 -0.10609,-1.22013 0.56956,-0.28492 1.17961,-0.45224 1.75061,-0.45623 z"
         style="fill:#000000;fill-opacity:1;fill-rule:nonzero;stroke:none" />
    </g>
  </g>
</svg>
